<?xml version="1.0" standalone="no"?>
<!DOCTYPE svg PUBLIC "-//W3C//DTD SVG 20010904//EN"
 "http://www.w3.org/TR/2001/REC-SVG-20010904/DTD/svg10.dtd">
<svg version="1.0" xmlns="http://www.w3.org/2000/svg"
 width="180.000000pt" height="180.000000pt" viewBox="0 0 180.000000 180.000000"
 preserveAspectRatio="xMidYMid meet">
<metadata>
Created by potrace 1.16, written by Peter Selinger 2001-2019
</metadata>
<g transform="translate(0.000000,180.000000) scale(0.100000,-0.100000)"
fill="#000000" stroke="none">
<path d="M1030 1670 c-19 -19 -20 -33 -20 -293 l0 -272 218 -78 c119 -42 220
-77 225 -77 4 0 7 27 7 60 l0 60 83 0 c99 0 146 19 199 78 45 50 58 93 58 198
0 112 -3 114 -158 114 l-122 0 -20 40 c-33 64 -57 74 -191 79 l-117 3 -53 54
c-58 58 -78 65 -109 34z"/>
<path d="M62 1224 c-48 -25 -66 -65 -58 -136 10 -104 83 -211 176 -258 l40
-20 0 -376 c0 -372 3 -405 34 -426 6 -4 70 -8 142 -8 114 0 133 2 147 18 15
16 17 47 17 225 l0 207 285 0 285 0 0 -215 c0 -202 1 -215 19 -225 11 -5 78
-10 149 -10 112 0 131 2 145 18 15 17 17 60 17 413 l0 395 -107 38 c-60 21
-171 61 -248 89 l-140 52 -332 5 c-404 6 -377 -4 -422 159 -14 54 -93 83 -149
55z"/>
</g>
</svg>
